<?xml version="1.0" encoding="utf-8"?>
<!-- Generator: Adobe Illustrator 17.0.0, SVG Export Plug-In . SVG Version: 6.00 Build 0)  -->
<!DOCTYPE svg PUBLIC "-//W3C//DTD SVG 1.1//EN" "http://www.w3.org/Graphics/SVG/1.1/DTD/svg11.dtd">
<svg version="1.1" id="Layer_1" xmlns="http://www.w3.org/2000/svg" xmlns:xlink="http://www.w3.org/1999/xlink" x="0px" y="0px"
	 width="361px" height="85px" viewBox="0 0 361 85" enable-background="new 0 0 361 85" xml:space="preserve">
<g>
	<path fill="#FFFFFF" d="M30.87,1.934c2.51,0.068,4.971,0.951,7.381,2.647c2.408,1.697,4.53,4.072,6.363,7.126
		s3.274,6.719,4.327,10.995c1.052,4.276,1.543,9.061,1.477,14.355c-0.137,7.603-1.222,14.423-3.258,20.463
		c-2.036,6.042-4.887,10.86-8.552,14.457c1.899,2.171,3.851,3.8,5.854,4.887c2.001,1.085,4.632,1.629,7.89,1.629
		c-0.272,1.425-0.865,2.545-1.782,3.359c-0.916,0.814-1.85,1.459-2.8,1.935c-1.222,0.542-2.512,0.916-3.868,1.119
		c-1.698,0.136-3.174-0.051-4.429-0.56c-1.257-0.509-2.342-1.206-3.258-2.087c-0.917-0.883-1.715-1.833-2.393-2.851
		c-0.679-1.019-1.29-1.97-1.833-2.851c-2.512,1.018-5.125,1.492-7.839,1.425c-3.665-0.068-7.008-0.883-10.028-2.443
		c-3.021-1.562-5.599-3.903-7.737-7.024c-2.138-3.121-3.767-7.058-4.887-11.81c-1.12-4.75-1.613-10.349-1.476-16.798
		c0.135-6.447,1.12-12.098,2.952-16.951c1.833-4.852,3.987-8.924,6.465-12.217c2.477-3.291,5.056-5.803,7.737-7.534
		c2.681-1.73,4.938-2.698,6.771-2.901c0.949,0.679,1.764,1.46,2.443,2.341c0.542-0.203,1.17-0.372,1.883-0.509
		C28.986,2.002,29.851,1.934,30.87,1.934z M40.032,37.668c0.067-3.461-0.17-6.803-0.712-10.028
		c-0.544-3.223-1.272-6.091-2.189-8.603c-0.916-2.51-1.952-4.53-3.105-6.058c-1.155-1.527-2.341-2.324-3.563-2.392
		c-0.883,0.068-1.766,0.34-2.647,0.814c-0.748,0.476-1.544,1.188-2.392,2.138c-0.85,0.951-1.646,2.308-2.393,4.072
		c-0.748-0.95-1.206-1.968-1.375-3.054c-0.17-1.085-0.188-2.171-0.051-3.258c-1.833,1.358-3.411,3.038-4.734,5.04
		c-1.324,2.002-2.428,4.209-3.309,6.617c-0.883,2.41-1.562,4.955-2.036,7.636c-0.476,2.682-0.748,5.413-0.814,8.195
		c-0.068,4.005,0.067,7.569,0.407,10.689c0.339,3.123,0.814,5.872,1.426,8.247c0.474-1.085,1.222-1.968,2.239-2.647
		c1.019-0.678,2.409-1.018,4.174-1.018c2.443,0,4.734,0.798,6.872,2.393c2.138,1.595,4.597,4.361,7.381,8.297
		c2.103-2.985,3.732-6.872,4.887-11.657C39.251,48.308,39.895,43.166,40.032,37.668z M24.456,70.145c1.357,0,2.51-0.238,3.461-0.713
		c-0.611-1.084-1.29-2.153-2.036-3.206c-0.748-1.052-1.527-2.002-2.341-2.851s-1.664-1.543-2.545-2.088
		c-0.883-0.542-1.833-0.814-2.851-0.814c-0.748,0-1.341,0.29-1.782,0.866c-0.442,0.577-0.628,1.29-0.56,2.138
		c0.066,0.85,0.407,1.748,1.018,2.697c0.611,0.952,1.594,1.833,2.953,2.647C21.13,69.702,22.69,70.145,24.456,70.145z"/>
	<path fill="#FFFFFF" d="M81.111,29.778c0.917-0.373,1.899-0.56,2.953-0.56c1.051,0,2.019,0.188,2.901,0.56
		c0.881,0.374,1.289,0.865,1.222,1.476c-0.068,0.476-0.137,1.409-0.204,2.8c-0.068,1.392-0.153,3.038-0.254,4.938
		c-0.102,1.901-0.221,3.937-0.356,6.109c-0.137,2.173-0.254,4.293-0.356,6.362c-0.102,2.071-0.17,3.988-0.204,5.752
		c-0.035,1.767-0.051,3.123-0.051,4.072c0,1.222,0.067,2.342,0.204,3.36c0.135,0.883,0.305,1.748,0.509,2.596
		c0.203,0.85,0.509,1.443,0.916,1.781c-0.544,0.204-1.104,0.339-1.68,0.407c-0.578,0.067-1.104,0.136-1.578,0.204
		c-0.544,0.066-1.086,0.102-1.629,0.102c-1.155,0-2.122-0.238-2.901-0.713c-0.781-0.474-1.171-1.458-1.171-2.952
		c0-0.746,0.051-1.832,0.153-3.258c0.102-1.425,0.219-2.952,0.356-4.581c-0.476,1.425-1.053,2.886-1.73,4.378
		c-0.679,1.493-1.511,2.817-2.494,3.97c-0.985,1.155-2.087,2.105-3.309,2.851c-1.222,0.746-2.614,1.12-4.174,1.12
		c-1.766,0-3.377-0.374-4.836-1.12c-1.46-0.745-2.733-1.814-3.818-3.206c-1.086-1.391-1.901-3.105-2.443-5.142
		c-0.544-2.036-0.748-4.378-0.61-7.024c0-2.036,0.033-4.208,0.102-6.516c0.067-1.968,0.168-4.241,0.306-6.821
		c0.135-2.579,0.372-5.259,0.712-8.043c0.067-0.271,0.542-0.611,1.425-1.018c0.881-0.407,1.866-0.746,2.952-1.018
		c1.085-0.271,2.138-0.372,3.156-0.306c1.018,0.069,1.764,0.476,2.24,1.222c-0.34,1.222-0.679,2.665-1.018,4.327
		c-0.34,1.664-0.646,3.377-0.916,5.141c-0.272,1.766-0.476,3.497-0.611,5.192c-0.137,1.698-0.203,3.258-0.203,4.684
		c0,1.29,0.066,2.698,0.203,4.225c0.135,1.527,0.39,2.953,0.764,4.276c0.373,1.323,0.917,2.428,1.629,3.309
		c0.713,0.883,1.645,1.323,2.8,1.323c1.289,0,2.426-0.56,3.411-1.68c0.983-1.12,1.815-2.561,2.494-4.327
		c0.678-1.764,1.255-3.782,1.731-6.057c0.474-2.273,0.865-4.531,1.17-6.771c0.306-2.24,0.509-4.394,0.611-6.465
		c0.102-2.07,0.186-3.818,0.255-5.243v-2.036C79.737,30.712,80.195,30.152,81.111,29.778z"/>
	<path fill="#FFFFFF" d="M108.955,70.45c-4.751,0-8.417-1.594-10.995-4.785c-2.58-3.189-3.869-7.363-3.869-12.522
		c0-3.596,0.525-6.974,1.578-10.129c1.051-3.156,2.459-5.887,4.225-8.196c1.764-2.306,3.818-4.123,6.16-5.446
		c2.341-1.324,4.801-1.985,7.381-1.985c2.51,0,4.648,0.9,6.414,2.698c1.764,1.799,2.647,4.362,2.647,7.687
		c0,2.173-0.476,4.327-1.426,6.465c-0.951,2.138-2.188,4.038-3.716,5.701c-1.527,1.663-3.207,3.003-5.039,4.021
		c-1.833,1.019-3.599,1.527-5.294,1.527c-1.087,0-2.003-0.135-2.749-0.407c-0.748-0.271-1.425-0.678-2.036-1.222
		c0.204,3.869,1.051,6.566,2.545,8.094c1.492,1.527,3.427,2.291,5.803,2.291c1.629,0,3.07-0.339,4.327-1.019
		c1.255-0.678,2.324-1.458,3.207-2.342c0.881-0.881,1.594-1.781,2.138-2.697c0.542-0.916,0.917-1.611,1.12-2.087
		c0.204-0.407,0.56-0.611,1.069-0.611c0.509,0,0.764,0.407,0.764,1.222c0,0.748-0.254,1.884-0.764,3.411
		c-0.509,1.526-1.341,3.054-2.494,4.581c-1.155,1.527-2.631,2.868-4.429,4.021C113.723,69.873,111.534,70.45,108.955,70.45z
		 M113.638,31.764c-0.407,0-1.171,0.424-2.291,1.272c-1.12,0.849-2.308,2.087-3.563,3.716c-1.256,1.629-2.41,3.581-3.461,5.854
		c-1.053,2.275-1.715,4.835-1.985,7.686c4.072-0.949,7.295-2.443,9.672-4.479c2.375-2.036,3.563-5.021,3.563-8.959
		c0-1.967-0.239-3.309-0.713-4.021C114.385,32.12,113.977,31.764,113.638,31.764z"/>
	<path fill="#FFFFFF" d="M145.199,49.987c1.492,0.544,2.917,1.053,4.276,1.526c1.357,0.477,2.545,1.054,3.563,1.731
		c1.018,0.679,1.832,1.476,2.443,2.393c0.61,0.916,0.916,2.054,0.916,3.41c0,1.629-0.356,3.156-1.069,4.581
		c-0.713,1.426-1.749,2.683-3.105,3.767c-1.359,1.087-3.003,1.951-4.938,2.597c-1.934,0.645-4.09,0.967-6.464,0.967
		c-2.647,0-4.785-0.254-6.414-0.764c-1.629-0.509-2.886-1.102-3.767-1.781c-0.883-0.678-1.46-1.356-1.731-2.036
		c-0.272-0.678-0.407-1.222-0.407-1.629c0-0.814,0.168-1.713,0.509-2.698c0.338-0.982,0.983-2.052,1.934-3.207
		c0.407-0.474,0.848-0.916,1.324-1.323c0.949-0.814,1.899-1.323,2.851-1.527c-0.137,1.562,0.051,2.835,0.56,3.818
		c0.509,0.984,1.187,1.748,2.036,2.29c0.848,0.545,1.798,0.917,2.851,1.12c1.052,0.204,2.052,0.306,3.003,0.306
		c0.95,0,1.917-0.135,2.901-0.407c0.983-0.271,1.883-0.627,2.698-1.069c0.814-0.44,1.477-0.949,1.985-1.526
		c0.509-0.576,0.764-1.204,0.764-1.884c0-0.746-0.306-1.356-0.916-1.833c-0.611-0.474-1.375-0.865-2.291-1.17
		c-0.916-0.306-1.901-0.543-2.952-0.713c-1.053-0.169-2.054-0.356-3.003-0.561c-0.951-0.203-2.224-0.491-3.818-0.865
		c-1.595-0.372-3.156-0.967-4.683-1.781c-1.527-0.814-2.851-1.899-3.97-3.258c-1.12-1.356-1.68-3.156-1.68-5.396
		c0-2.579,0.662-4.836,1.985-6.77c1.324-1.935,2.953-3.563,4.887-4.887c1.935-1.324,3.986-2.324,6.16-3.003
		c2.171-0.678,4.105-1.018,5.803-1.018c0.881,0,1.833,0.119,2.851,0.356c1.018,0.238,1.968,0.646,2.851,1.222
		c0.881,0.577,1.611,1.341,2.189,2.291c0.576,0.951,0.865,2.173,0.865,3.665c0,1.494-0.119,2.698-0.356,3.614
		c-0.238,0.916-0.577,1.629-1.018,2.138c-0.442,0.509-0.967,0.832-1.578,0.967c-0.61,0.137-1.323,0.204-2.138,0.204
		c-0.544,0-1.053-0.067-1.527-0.204c-0.407-0.135-0.849-0.271-1.323-0.407c-0.476-0.135-0.916-0.372-1.323-0.713
		c0.677-0.814,1.204-1.594,1.578-2.341c0.373-0.746,0.56-1.662,0.56-2.749c0-0.95-0.254-1.798-0.764-2.545
		c-0.509-0.746-1.341-1.12-2.494-1.12c-1.222,0-2.393,0.238-3.512,0.712c-1.12,0.476-2.104,1.12-2.953,1.934
		c-0.849,0.814-1.527,1.749-2.036,2.8c-0.509,1.053-0.764,2.189-0.764,3.411c0,1.833,0.695,3.563,2.087,5.192
		C140.022,47.441,142.211,48.834,145.199,49.987z"/>
	<path fill="#FFFFFF" d="M200.581,24.026c-0.747-0.135-1.748-0.271-3.003-0.407c-1.257-0.135-2.529-0.237-3.818-0.306
		c-1.493-0.067-3.089-0.102-4.784-0.102c-1.697-0.135-3.818-0.153-6.363-0.051c-2.545,0.102-5.209,0.153-7.992,0.153
		c-0.068,1.766-0.188,3.563-0.356,5.396c-0.17,1.833-0.323,3.632-0.458,5.396c-0.34,3.258-0.628,6.584-0.865,9.977
		c-0.238,3.395-0.356,6.617-0.356,9.672c0,3.054,0.187,5.82,0.56,8.297c0.373,2.479,1.069,4.429,2.087,5.854
		c-0.814,0.61-1.698,1.068-2.647,1.374c-0.951,0.306-1.799,0.525-2.545,0.662c-0.883,0.203-1.766,0.305-2.647,0.305
		c-0.814,0-1.494-0.271-2.036-0.814c-0.544-0.542-0.85-1.491-0.917-2.851c-0.137-2.306-0.152-4.632-0.051-6.974
		c0.102-2.341,0.237-4.801,0.407-7.381c0.169-2.578,0.356-5.345,0.56-8.297c0.204-2.953,0.407-6.193,0.611-9.723
		c0.204-3.665,0.306-7.229,0.306-10.69c-2.581,0.068-4.752,0.102-6.516,0.102c-1.764,0-2.749-0.034-2.953-0.102
		c-0.204-0.135-0.44-0.44-0.712-0.917c-0.271-0.407-0.627-1.018-1.069-1.832c-0.44-0.814-1-1.968-1.68-3.462c1.29,0,2.698,0,4.225,0
		c1.527,0,2.935-0.033,4.225-0.102c1.492-0.067,2.985-0.135,4.479-0.204c-0.069-1.085-0.102-2.24-0.102-3.461
		c-0.068-0.95-0.102-2.019-0.102-3.207c0-1.187-0.035-2.291-0.102-3.309c0-0.407,0.492-0.899,1.476-1.476
		c0.983-0.576,2.052-1.103,3.207-1.578c1.153-0.474,2.222-0.779,3.207-0.917c0.983-0.135,1.476,0.102,1.476,0.713
		s-0.018,2.087-0.051,4.429c-0.035,2.341-0.12,5.176-0.255,8.501c0.678,0,1.187-0.034,1.527-0.102
		c3.597-0.135,6.498-0.288,8.705-0.458c2.204-0.169,4.021-0.186,5.446-0.051c1.425,0.137,2.681,0.476,3.767,1.019
		c1.085,0.544,2.307,1.425,3.665,2.646c0.475,0.407,0.882,0.85,1.222,1.324c0.339,0.407,0.627,0.865,0.865,1.375
		C200.462,22.957,200.581,23.484,200.581,24.026z"/>
	<path fill="#FFFFFF" d="M184.801,5.904c0.543-0.746,1.137-1.39,1.782-1.934c0.645-0.542,1.306-0.983,1.985-1.324
		c0.746-0.338,1.526-0.61,2.341-0.814c0.611-0.135,1.188-0.203,1.731-0.203c0.474,0,0.932,0.035,1.374,0.102
		c0.44,0.068,0.797,0.239,1.069,0.509c-0.137,3.258-0.255,6.024-0.356,8.297c-0.102,2.275-0.204,4.26-0.306,5.956
		c-0.102,1.698-0.188,3.207-0.255,4.531c-0.068,1.323-0.152,2.665-0.254,4.021c-0.102,1.359-0.222,2.835-0.356,4.429
		c-0.137,1.596-0.272,3.513-0.407,5.752c-0.137,1.426-0.238,2.868-0.306,4.327c-0.068,1.46-0.137,2.937-0.203,4.429
		c0.61-1.696,1.374-3.462,2.29-5.294c0.917-1.833,1.985-3.495,3.207-4.989c1.222-1.492,2.612-2.731,4.174-3.716
		c1.561-0.983,3.258-1.476,5.091-1.476c2.578,0,4.648,0.748,6.21,2.239c1.561,1.494,2.749,3.309,3.563,5.447
		c0.814,2.138,1.34,4.396,1.578,6.77c0.237,2.377,0.356,4.479,0.356,6.312c0,1.766-0.222,3.853-0.662,6.261
		c-0.442,2.41-1.222,4.719-2.342,6.923c-1.119,2.207-2.596,4.09-4.429,5.65c-1.832,1.561-4.141,2.342-6.923,2.342
		c-1.969,0-3.631-0.407-4.988-1.222c-1.358-0.814-2.479-1.764-3.359-2.851c-0.883-1.085-1.511-2.171-1.884-3.258
		c-0.373-1.085-0.56-1.866-0.56-2.342c0-0.474,0.169-1.034,0.509-1.68c0.339-0.645,0.746-1.255,1.222-1.832
		c0.475-0.576,0.983-1.052,1.527-1.426c0.542-0.372,0.983-0.524,1.323-0.458c-0.137,2.239,0.017,3.954,0.458,5.142
		s0.968,2.054,1.578,2.596c0.746,0.68,1.561,1.053,2.443,1.12c1.289,0,2.426-0.611,3.411-1.833c0.982-1.222,1.814-2.714,2.494-4.479
		c0.678-1.764,1.204-3.681,1.578-5.752c0.372-2.069,0.56-3.92,0.56-5.549c0-1.222-0.086-2.527-0.255-3.919
		c-0.17-1.39-0.425-2.68-0.764-3.869c-0.34-1.187-0.814-2.154-1.425-2.901c-0.611-0.746-1.358-1.12-2.24-1.12
		c-1.493,0-3.054,0.85-4.683,2.545c-1.629,1.697-3.123,3.919-4.479,6.668c-1.358,2.749-2.479,5.854-3.359,9.315
		c-0.883,3.461-1.29,6.991-1.222,10.588c0,0.951,0.051,1.781,0.152,2.494s0.22,1.341,0.356,1.884
		c-1.629,0.679-2.919,1.085-3.869,1.222c-0.544,0.135-0.984,0.168-1.323,0.102c-0.951,0-1.73-0.272-2.342-0.814
		c-0.61-0.542-0.984-1.695-1.119-3.462c-0.068-0.61-0.103-2.29-0.103-5.039s0-6.073,0-9.977c0-3.902,0.017-8.127,0.052-12.676
		c0.033-4.546,0.066-8.924,0.102-13.133c0.033-4.208,0.066-7.992,0.102-11.352C184.681,9.824,184.732,7.398,184.801,5.904z"/>
	<path fill="#FFFFFF" d="M253.113,51.819c-0.137,2.647-0.595,5.091-1.374,7.33c-0.781,2.24-1.851,4.191-3.207,5.854
		c-1.358,1.663-2.97,2.97-4.836,3.919c-1.867,0.95-3.92,1.459-6.159,1.527c-1.97,0.066-3.817-0.407-5.549-1.426
		c-1.73-1.018-3.241-2.443-4.53-4.275c-1.29-1.833-2.257-4.021-2.901-6.566c-0.646-2.545-0.832-5.31-0.56-8.298
		c0.203-3.461,0.848-6.43,1.934-8.908c1.085-2.477,2.24-4.531,3.462-6.16s2.357-2.833,3.41-3.614
		c1.052-0.78,1.714-1.238,1.985-1.375c0.475-0.204,0.916-0.254,1.323-0.153c0.407,0.102,0.849,0.221,1.324,0.356
		c0.135,0.068,0.271,0.239,0.407,0.509c0.271,0.476,0.44,1.358,0.509,2.646c0.339-0.746,0.779-1.356,1.323-1.832
		c0.543-0.474,1.085-0.814,1.629-1.019c0.678-0.27,1.357-0.44,2.036-0.509c0.475-0.067,1.307,0.306,2.494,1.12
		s2.342,2.104,3.462,3.868c1.12,1.766,2.087,4.057,2.901,6.872C253.012,44.507,253.317,47.884,253.113,51.819z M246.19,50.598
		c0.067-1.629,0.017-3.273-0.152-4.938c-0.17-1.662-0.442-3.189-0.814-4.582c-0.374-1.39-0.832-2.51-1.375-3.359
		c-0.544-0.848-1.086-1.273-1.629-1.273c-0.61,0.137-1.29,0.442-2.036,0.917c-0.61,0.407-1.29,1.053-2.036,1.934
		c-0.747,0.883-1.46,2.138-2.138,3.767c-0.068-0.204-0.137-0.576-0.203-1.12c-0.068-0.474-0.119-1.103-0.153-1.884
		c-0.034-0.779,0.017-1.848,0.153-3.207c-0.951,1.155-1.68,2.512-2.189,4.072c-0.509,1.562-0.9,3.055-1.171,4.479
		c-0.271,1.698-0.476,3.396-0.61,5.091c-0.068,1.832,0.016,3.632,0.255,5.396c0.236,1.766,0.644,3.326,1.222,4.684
		c0.575,1.358,1.272,2.443,2.087,3.258s1.797,1.188,2.952,1.119c1.153-0.066,2.171-0.542,3.054-1.425
		c0.882-0.881,1.663-2.001,2.342-3.359c0.678-1.357,1.222-2.884,1.629-4.582C245.783,53.891,246.054,52.227,246.19,50.598z"/>
	<path fill="#FFFFFF" d="M288.033,64.138c0.135,0.477,0.339,0.917,0.611,1.324c0.203,0.34,0.491,0.661,0.865,0.967
		c0.372,0.306,0.83,0.493,1.374,0.56c-0.476,0.952-0.951,1.596-1.425,1.935c-0.272,0.204-0.51,0.341-0.713,0.407
		c-0.611,0.204-1.527,0.306-2.749,0.306s-2.41-0.372-3.563-1.12c-0.407-0.339-0.781-0.848-1.119-1.527
		c-0.341-0.542-0.629-1.306-0.866-2.29c-0.238-0.983-0.425-2.256-0.56-3.818c-0.951,2.036-2.021,3.649-3.207,4.836
		c-1.188,1.188-2.359,2.054-3.512,2.597c-1.291,0.747-2.614,1.187-3.971,1.323c-1.697,0.135-3.309-0.152-4.836-0.865
		s-2.817-1.798-3.869-3.258c-1.053-1.459-1.85-3.24-2.392-5.345c-0.545-2.104-0.713-4.479-0.51-7.127
		c0.204-2.782,0.746-5.259,1.629-7.432c0.882-2.171,1.935-4.106,3.156-5.803c1.222-1.696,2.51-3.139,3.869-4.327
		c1.356-1.187,2.662-2.171,3.919-2.953c1.255-0.779,2.342-1.357,3.258-1.73c0.916-0.373,1.51-0.593,1.782-0.662
		c0.745-0.204,1.39-0.271,1.934-0.204c0.543,0.069,1.019,0.374,1.426,0.917c0.135,0.204,0.306,0.442,0.509,0.712
		c0.135,0.272,0.306,0.628,0.509,1.069c0.204,0.442,0.372,0.934,0.51,1.476c-1.629,0.748-3.156,1.578-4.582,2.494
		c-1.425,0.917-2.732,2.021-3.919,3.309c-1.188,1.29-2.225,2.851-3.105,4.683c-0.883,1.833-1.562,4.072-2.036,6.72
		c-0.68,3.326-0.493,6.007,0.56,8.043c1.052,2.036,2.495,2.886,4.327,2.545c1.085-0.339,2.138-0.983,3.156-1.935
		c0.881-0.814,1.814-2.036,2.8-3.665c0.982-1.629,1.916-3.868,2.8-6.719c0.338-4.072,0.626-7.28,0.865-9.621
		c0.236-2.342,0.458-4.123,0.661-5.345c0.271-1.426,0.475-2.375,0.611-2.851c0.203-0.339,0.61-0.662,1.222-0.967
		c0.61-0.306,1.288-0.56,2.036-0.764c0.746-0.204,1.425-0.321,2.036-0.356c0.61-0.033,1.018-0.016,1.222,0.051
		c0.135,0.068,0.203,0.9,0.203,2.494c0,1.595-0.051,3.598-0.152,6.006c-0.102,2.41-0.222,5.023-0.356,7.839
		c-0.137,2.817-0.255,5.481-0.356,7.992c-0.102,2.512-0.17,4.7-0.203,6.566C287.845,62.493,287.896,63.664,288.033,64.138z"/>
	<path fill="#FFFFFF" d="M324.379,38.075c0,0.952-0.255,1.918-0.764,2.902c-0.51,0.984-1.138,1.918-1.884,2.799
		c-0.748,0.884-1.578,1.646-2.494,2.291c-0.916,0.646-1.781,1.036-2.596,1.171c0.542-2.103,0.712-3.731,0.509-4.887
		c-0.204-1.153-0.544-2.001-1.019-2.545c-0.544-0.611-1.222-0.95-2.036-1.018c-1.222,0-2.393,0.697-3.512,2.087
		c-1.12,1.392-2.087,3.09-2.901,5.091c-0.814,2.003-1.461,4.141-1.935,6.414c-0.476,2.274-0.713,4.326-0.713,6.159
		c-0.068,1.29-0.035,2.545,0.102,3.767c0.067,1.018,0.187,2.071,0.356,3.156c0.169,1.086,0.423,1.934,0.764,2.545
		c-0.407,0.341-1.069,0.748-1.985,1.222s-1.867,0.779-2.851,0.916c-0.984,0.136-1.867-0.035-2.646-0.509
		c-0.781-0.474-1.206-1.492-1.272-3.055c-0.138-1.491-0.222-3.172-0.255-5.039c-0.035-1.866-0.035-3.731,0-5.6
		c0.033-1.865,0.084-3.716,0.152-5.548c0.067-1.833,0.169-3.528,0.306-5.091c0.135-2.986,0.204-5.294,0.204-6.923
		s-0.035-3.189-0.103-4.683c0-0.271,0.458-0.662,1.375-1.171c0.916-0.509,1.934-0.967,3.054-1.375s2.154-0.644,3.105-0.712
		c0.949-0.067,1.425,0.137,1.425,0.611c0,0.748-0.086,2.224-0.254,4.429c-0.171,2.206-0.392,4.497-0.662,6.872
		c0.474-1.289,1.103-2.681,1.884-4.174c0.779-1.492,1.68-2.884,2.697-4.174c1.019-1.288,2.172-2.357,3.462-3.207
		c1.288-0.848,2.714-1.273,4.275-1.273c1.222,0,2.223,0.374,3.004,1.12c0.779,0.748,1.407,1.596,1.883,2.545
		c0.475,0.952,0.814,1.901,1.019,2.851C324.276,36.991,324.379,37.668,324.379,38.075z"/>
	<path fill="#FFFFFF" d="M360.722,4.683c0,0.748-0.068,2.207-0.203,4.378c-0.137,2.173-0.306,4.785-0.509,7.839
		c-0.204,3.055-0.407,6.414-0.611,10.079c-0.203,3.665-0.374,7.398-0.509,11.199c-0.137,3.802-0.255,7.348-0.356,10.639
		c-0.102,3.293-0.137,6.228-0.102,8.806c0.033,2.581,0.152,4.734,0.356,6.465c0.203,1.731,0.509,2.901,0.916,3.513l-4.581,1.73
		c-0.341,0.136-0.748,0.204-1.222,0.204c-0.476,0-0.968-0.137-1.477-0.407s-0.934-0.746-1.272-1.426
		c-0.341-0.678-0.509-1.629-0.509-2.851c0-0.474,0.016-1.068,0.051-1.781c0.033-0.713,0.051-1.543,0.051-2.494
		c-0.814,1.358-1.697,2.682-2.647,3.97c-0.951,1.291-1.984,2.41-3.104,3.36c-1.12,0.951-2.326,1.713-3.614,2.29
		c-1.29,0.576-2.647,0.865-4.072,0.865c-1.358,0-2.682-0.289-3.971-0.865c-1.29-0.577-2.443-1.44-3.461-2.596
		c-1.019-1.153-1.851-2.647-2.494-4.479c-0.646-1.833-0.968-4.037-0.968-6.617c0-4.684,0.543-8.771,1.629-12.268
		c1.085-3.496,2.46-6.415,4.123-8.756c1.663-2.342,3.462-4.106,5.396-5.294c1.934-1.187,3.716-1.782,5.345-1.782
		c2.51,0,4.444,0.662,5.803,1.985c1.356,1.323,2.342,2.698,2.952,4.123c0.067-1.968,0.118-3.818,0.153-5.548
		c0.033-1.731,0.051-3.207,0.051-4.429c0-5.022-0.103-9.501-0.306-13.438c-0.204-3.936-0.713-6.923-1.527-8.959
		c0.95-0.542,1.815-0.95,2.597-1.222c0.779-0.271,1.476-0.474,2.087-0.611C355.463,0.102,356.106,0,356.65,0
		c1.492,0,2.546,0.424,3.156,1.272C360.418,2.122,360.722,3.258,360.722,4.683z M351.052,51.921c0.135-1.764,0.22-3.613,0.254-5.548
		s0.085-3.885,0.153-5.854c-0.476,0.748-1.036,1.392-1.68,1.935c-0.646,0.544-1.342,0.679-2.088,0.407
		c0.271-2.036,0.255-3.597-0.051-4.683c-0.305-1.085-0.729-1.899-1.272-2.443c-0.61-0.611-1.323-0.95-2.138-1.018
		c-1.222,0-2.428,0.679-3.614,2.036c-1.188,1.358-2.239,3.038-3.156,5.04c-0.916,2.002-1.646,4.141-2.188,6.414
		c-0.544,2.275-0.814,4.362-0.814,6.262c0,3.802,0.525,6.448,1.578,7.94c1.052,1.494,2.188,2.24,3.41,2.24
		c1.019,0,2.087-0.407,3.207-1.222s2.205-1.866,3.258-3.156c1.052-1.288,2.036-2.663,2.952-4.123
		C349.779,54.688,350.508,53.28,351.052,51.921z"/>
</g>
</svg>
