<?xml version="1.0" encoding="utf-8"?>
<!-- Generator: Adobe Illustrator 17.0.0, SVG Export Plug-In . SVG Version: 6.00 Build 0)  -->
<!DOCTYPE svg PUBLIC "-//W3C//DTD SVG 1.1//EN" "http://www.w3.org/Graphics/SVG/1.1/DTD/svg11.dtd">
<svg version="1.1"
	 id="svg2" xmlns:sodipodi="http://sodipodi.sourceforge.net/DTD/sodipodi-0.dtd" xmlns:dc="http://purl.org/dc/elements/1.1/" xmlns:rdf="http://www.w3.org/1999/02/22-rdf-syntax-ns#" xmlns:svg="http://www.w3.org/2000/svg" xmlns:cc="http://creativecommons.org/ns#" xmlns:inkscape="http://www.inkscape.org/namespaces/inkscape" inkscape:version="0.48.2 r9819" sodipodi:docname="simple_wind_rose.svg"
	 xmlns="http://www.w3.org/2000/svg" xmlns:xlink="http://www.w3.org/1999/xlink" x="0px" y="0px" width="634px" height="627px"
	 viewBox="55.047 212.681 634 627" enable-background="new 55.047 212.681 634 627" xml:space="preserve">
<defs>
	
	
		<inkscape:perspective  id="perspective2853" sodipodi:type="inkscape:persp3d" inkscape:vp_z="744.09448 : 526.18109 : 1" inkscape:vp_y="0 : 1000 : 0" inkscape:vp_x="0 : 526.18109 : 1" inkscape:persp3d-origin="372.04724 : 350.78739 : 1">
		</inkscape:perspective>
</defs>
<sodipodi:namedview  id="base" inkscape:zoom="0.70710678" borderopacity="1.0" pagecolor="#ffffff" showgrid="false" inkscape:cx="317.47826" bordercolor="#666666" inkscape:cy="570.15049" inkscape:window-height="838" inkscape:window-maximized="1" inkscape:window-y="-8" inkscape:window-width="1600" inkscape:current-layer="layer1" inkscape:pageshadow="2" inkscape:pageopacity="0.0" inkscape:document-units="px" inkscape:window-x="-8">
	</sodipodi:namedview>
<g id="layer1" inkscape:label="Layer 1" inkscape:groupmode="layer">
	<g id="g4436" transform="matrix(0.14580504,0,0,0.14580504,963.22423,1158.9988)">
		<path id="path3254-2-2-7-1" inkscape:connector-curvature="0" fill="#AAAAAA" d="M-4011.676-6109.717l-272.969,1313.875
			l-492.719-323.25l-10.375,10.344l322.688,491.938l-1311.282,272.344v23.5l1310.782,272.344l-324.781,495.094l10.344,10.344
			l493.031-323.375l272.875,1313.75h23.5l273.031-1314.094l492.75,323.219l10.344-10.344l-322.812-492.125l1311.25-272.375v-23.5
			l-1310.532-272.281l324.531-494.688l-10.375-10.344l-492.906,323.312l-272.875-1313.688H-4011.676z M-4011.895-5990.686v1373.782
			v254.844l-280.156-280.25l28.969-139.375L-4011.895-5990.686z M-3274.926-5066.998l-411.25,411.25l-25.875-124.531
			L-3274.926-5066.998z M-4735.395-5056.217l410.312,410.312l-124.25,25.812L-4735.395-5056.217z M-3693.363-4622.404
			l142.656,29.656l1205.657,250.5h-1370h-258.531L-3693.363-4622.404z M-5657.301-4320.748h1370.313h258.5l-280.219,280.219
			l-142.688-29.656L-5657.301-4320.748z M-3990.363-4300.654l280.219,280.219l-28.969,139.375l-251.25,1209.219v-1374.063V-4300.654
			z M-3552.988-4042.904l286.188,436.344l-410.531-410.531L-3552.988-4042.904z M-4316.082-4006.842l25.844,124.562
			l-437.188,286.781L-4316.082-4006.842z"/>
		<g id="text4344">
			<path id="path4434" inkscape:connector-curvature="0" fill="#AAAAAA" d="M-3868.653-6473.692
				c-23.317,2.168-34.975,39.275-34.975,111.32v133.089h-15.617l-158.282-222.834v67.196c0,32.965,1.125,57.581,3.375,73.848
				c4.832,35.637,15.491,54.49,31.978,56.562v16.434h-91.524v-16.349c23.195-3.565,34.792-46.361,34.792-128.387v-65.941
				c0-9.656-1.677-16.108-5.031-19.357c-3.354-3.249-11.236-5.019-23.646-5.312v-16.872h69.218l132.407,186.714v-52.87
				c0-75.764-11.594-114.856-34.78-117.277v-16.567h92.084L-3868.653-6473.692z"/>
		</g>
		<g id="text4344-1">
			<path id="path4431" inkscape:connector-curvature="0" fill="#AAAAAA" d="M-1886.229-4342.825c0,25.891-7.34,50.6-22.019,74.128
				c-14.68,23.528-33.665,41.212-56.957,53.053c-20.994,10.688-43.108,16.032-66.344,16.032c-33.939,0-62.378-11.467-85.317-34.402
				c-22.939-22.935-34.408-51.242-34.408-84.921c0-38.17,14.129-71.709,42.387-100.618c28.258-28.908,61.554-43.362,99.887-43.362
				c44.213,0,78.688,17.896,103.426,53.687C-1892.678-4390.623-1886.23-4368.488-1886.229-4342.825L-1886.229-4342.825z
				 M-1927.1-4309.19c0-22.87-4.711-44.343-14.131-64.419c-10.396-21.911-24.657-38.097-42.783-48.558
				c-17.648-10.119-33.939-15.179-48.875-15.179c-23.723,0-42.783,8.41-57.183,25.229c-13.555,15.967-20.332,36.323-20.332,61.069
				c0,33.249,9.498,62.145,28.494,86.688c20.62,26.63,46.771,39.945,78.453,39.945c22.439,0,40.964-8.45,55.574-25.351
				C-1934.028-4266.042-1927.1-4285.849-1927.1-4309.19L-1927.1-4309.19z"/>
		</g>
		<g id="text4344-8">
			<path id="path4428" inkscape:connector-curvature="0" fill="#AAAAAA" d="M-3923.692-2272.778
				c0,22.602-10.432,42.049-31.296,58.34c-19.012,14.919-40.079,22.378-63.2,22.378c-17.339,0-37.497-4.438-60.472-13.315v-75.322
				h22.147c0,19.41,4.678,35.356,14.034,47.839c10.046,13.465,22.857,20.198,38.435,20.198c12.32,0,22.33-3.59,30.029-10.769
				c7.699-7.179,11.548-16.941,11.549-29.286c0-12.815-5.986-24.855-17.956-36.12c-5.06-4.678-17.177-13.392-36.351-26.143
				c-16.446-10.923-28.685-19.816-36.717-26.679c-5.92-5.068-10.684-11.488-14.29-19.26c-3.305-6.919-4.958-14.167-4.958-21.745
				c0-21.221,9.884-39.076,29.651-53.565c17.534-12.758,37.176-19.138,58.925-19.138c11.76,0,28.283,3.667,49.569,11v66.551h-22.305
				c-0.999-16.892-5.316-30.333-12.95-40.323c-8.3-10.956-18.935-16.433-31.905-16.434c-9.429,0-17.319,2.839-23.67,8.515
				c-6.327,5.888-9.49,13.535-9.49,22.939c0,11.971,6.895,24.141,20.685,36.51c5.312,4.808,17.899,13.859,37.764,27.154
				c17.851,11.898,29.541,20.677,35.072,26.338C-3929.592-2301.167-3923.692-2287.721-3923.692-2272.778L-3923.692-2272.778z"/>
		</g>
		<g id="text4344-7">
			<path id="path4425" inkscape:connector-curvature="0" fill="#AAAAAA" d="M-5851.882-4444.971
				c-14.741,0.26-28.799,17.181-42.174,50.763l-77.417,193.549h-17.627l-53.236-161.485c-9.186,20.669-17.599,40.684-25.241,60.045
				l-39.957,101.44h-17.274l-65.284-192.586c-8.341-24.762-16.19-40.233-23.548-46.414c-3.85-3.191-8.873-5.047-15.069-5.567
				v-16.641h75.261v16.848c-4.71,0.13-7.065,0.975-7.065,2.534c0,0.739,0.167,1.604,0.5,2.595l56.854,176.579l27.604-77.758
				c9.12-23.008,13.68-44.838,13.68-65.491c0-24.559-10.704-37.411-32.112-38.556v-16.75h76.235v16.872
				c-5.482,0.13-8.223,0.902-8.223,2.314c0,0.869,0.167,1.799,0.5,2.79l57.572,176.579l34.719-96.299
				c11.792-29.862,17.688-50.99,17.688-63.383c0-8.876-2.071-14.744-6.213-17.603c-3.728-2.639-11.975-4.105-24.742-4.397v-16.872
				h94.569L-5851.882-4444.971z"/>
		</g>
	</g>
</g>
</svg>
